<mxfile host="app.diagrams.net" modified="2023-06-23T12:45:00.629Z" agent="Mozilla/5.0 (Windows NT 10.0; Win64; x64) AppleWebKit/537.36 (KHTML, like Gecko) Chrome/114.0.0.0 Safari/537.36" etag="lTOM7e4XysblMl2s4MQb" version="21.3.4" type="device">
  <diagram name="Page-1" id="74b105a0-9070-1c63-61bc-23e55f88626e">
    <mxGraphModel dx="1615" dy="882" grid="1" gridSize="10" guides="1" tooltips="1" connect="1" arrows="1" fold="1" page="1" pageScale="1.5" pageWidth="1169" pageHeight="826" background="none" math="0" shadow="0">
      <root>
        <mxCell id="0" style=";html=1;" />
        <mxCell id="1" style=";html=1;" parent="0" />
        <mxCell id="10b056a9c633e61c-30" value="CineMate : System Diagram" style="text;strokeColor=none;fillColor=none;html=1;fontSize=24;fontStyle=1;verticalAlign=middle;align=center;" parent="1" vertex="1">
          <mxGeometry x="95.25" y="110" width="1590" height="40" as="geometry" />
        </mxCell>
        <mxCell id="e8AScphxFRSfaAL6_yWU-2" value="" style="sketch=0;outlineConnect=0;fontColor=#232F3E;gradientColor=none;fillColor=#232F3D;strokeColor=none;dashed=0;verticalLabelPosition=bottom;verticalAlign=top;align=center;html=1;fontSize=12;fontStyle=0;aspect=fixed;pointerEvents=1;shape=mxgraph.aws4.mobile_client;" parent="1" vertex="1">
          <mxGeometry x="840.18" y="200" width="99.87" height="190" as="geometry" />
        </mxCell>
        <mxCell id="uJPMlEKTOQsSnOTye5XY-2" value="" style="endArrow=openAsync;html=1;rounded=0;endFill=0;strokeWidth=6;" edge="1" parent="1">
          <mxGeometry relative="1" as="geometry">
            <mxPoint x="894.73" y="400" as="sourcePoint" />
            <mxPoint x="894.5" y="560" as="targetPoint" />
          </mxGeometry>
        </mxCell>
        <mxCell id="uJPMlEKTOQsSnOTye5XY-6" value="" style="endArrow=openAsync;html=1;rounded=0;endFill=0;strokeWidth=6;" edge="1" parent="1">
          <mxGeometry relative="1" as="geometry">
            <mxPoint x="880.5" y="560" as="sourcePoint" />
            <mxPoint x="880.5" y="400" as="targetPoint" />
          </mxGeometry>
        </mxCell>
        <mxCell id="uJPMlEKTOQsSnOTye5XY-7" value="&lt;font style=&quot;&quot;&gt;&lt;span style=&quot;font-size: 25px;&quot;&gt;Interacts&lt;b&gt;&amp;nbsp;with&lt;/b&gt;&lt;/span&gt;&lt;/font&gt;" style="text;html=1;align=center;verticalAlign=middle;resizable=0;points=[];autosize=1;strokeColor=none;fillColor=none;" vertex="1" parent="1">
          <mxGeometry x="910.5" y="460" width="180" height="40" as="geometry" />
        </mxCell>
        <mxCell id="uJPMlEKTOQsSnOTye5XY-9" value="&lt;font style=&quot;font-size: 20px;&quot;&gt;UI Layer&lt;/font&gt;" style="text;html=1;align=center;verticalAlign=middle;resizable=0;points=[];autosize=1;strokeColor=none;fillColor=none;" vertex="1" parent="1">
          <mxGeometry x="840.18" y="160" width="100" height="40" as="geometry" />
        </mxCell>
        <mxCell id="uJPMlEKTOQsSnOTye5XY-13" value="&lt;b&gt;&lt;i&gt;&lt;font style=&quot;font-size: 30px;&quot;&gt;TMDb API&lt;/font&gt;&lt;/i&gt;&lt;/b&gt;" style="rounded=1;whiteSpace=wrap;html=1;" vertex="1" parent="1">
          <mxGeometry x="755.25" y="570" width="270" height="140" as="geometry" />
        </mxCell>
        <mxCell id="uJPMlEKTOQsSnOTye5XY-14" value="&lt;font style=&quot;font-size: 20px;&quot;&gt;API L&lt;/font&gt;&lt;font style=&quot;font-size: 25px;&quot;&gt;ayer&lt;/font&gt;" style="text;html=1;align=center;verticalAlign=middle;resizable=0;points=[];autosize=1;strokeColor=none;fillColor=none;rotation=0;" vertex="1" parent="1">
          <mxGeometry x="1040" y="620" width="120" height="40" as="geometry" />
        </mxCell>
        <mxCell id="uJPMlEKTOQsSnOTye5XY-15" value="" style="endArrow=openAsync;html=1;rounded=0;endFill=0;strokeWidth=6;" edge="1" parent="1">
          <mxGeometry relative="1" as="geometry">
            <mxPoint x="889.71" y="720" as="sourcePoint" />
            <mxPoint x="889.48" y="900" as="targetPoint" />
          </mxGeometry>
        </mxCell>
        <mxCell id="uJPMlEKTOQsSnOTye5XY-16" value="" style="endArrow=openAsync;html=1;rounded=0;endFill=0;strokeWidth=6;" edge="1" parent="1">
          <mxGeometry relative="1" as="geometry">
            <mxPoint x="877.5" y="900" as="sourcePoint" />
            <mxPoint x="877.52" y="720" as="targetPoint" />
          </mxGeometry>
        </mxCell>
        <mxCell id="uJPMlEKTOQsSnOTye5XY-17" value="" style="verticalLabelPosition=bottom;html=1;verticalAlign=top;align=center;strokeColor=default;fillColor=default;shape=mxgraph.azure.server;strokeWidth=3;" vertex="1" parent="1">
          <mxGeometry x="740" y="910" width="285.25" height="80" as="geometry" />
        </mxCell>
        <mxCell id="uJPMlEKTOQsSnOTye5XY-20" value="&lt;b style=&quot;font-size: 25px;&quot;&gt;TMDb Server&lt;/b&gt;" style="text;html=1;align=center;verticalAlign=middle;resizable=0;points=[];autosize=1;strokeColor=none;fillColor=none;" vertex="1" parent="1">
          <mxGeometry x="792.62" y="910" width="180" height="40" as="geometry" />
        </mxCell>
        <mxCell id="uJPMlEKTOQsSnOTye5XY-23" value="&lt;font style=&quot;font-size: 22px;&quot;&gt;Sends requests &lt;b&gt;To&lt;/b&gt;&lt;/font&gt;" style="text;html=1;align=center;verticalAlign=middle;resizable=0;points=[];autosize=1;strokeColor=none;fillColor=none;" vertex="1" parent="1">
          <mxGeometry x="910.5" y="780" width="210" height="40" as="geometry" />
        </mxCell>
        <mxCell id="uJPMlEKTOQsSnOTye5XY-24" value="&lt;font style=&quot;font-size: 20px;&quot;&gt;Backend Layer&lt;/font&gt;" style="text;html=1;align=center;verticalAlign=middle;resizable=0;points=[];autosize=1;strokeColor=none;fillColor=none;" vertex="1" parent="1">
          <mxGeometry x="810.25" y="990" width="160" height="40" as="geometry" />
        </mxCell>
      </root>
    </mxGraphModel>
  </diagram>
</mxfile>
